<svg fill="#21D0C3" version="1.1" id="Layer_1" xmlns="http://www.w3.org/2000/svg" xmlns:xlink="http://www.w3.org/1999/xlink" viewBox="0 0 256 245" enable-background="new 0 0 256 245" xml:space="preserve"><g id="SVGRepo_bgCarrier" stroke-width="0"></g><g id="SVGRepo_tracerCarrier" stroke-linecap="round" stroke-linejoin="round"></g><g id="SVGRepo_iconCarrier"> 
<path d="M192.498,113.8c9.278,0,16.8,7.522,16.8,16.8s-7.522,16.8-16.8,16.8s-16.8-7.522-16.8-16.8S183.22,113.8,192.498,113.8z M171.798,155.6c9.278,0,16.8,7.522,16.8,16.8s-7.522,16.8-16.8,16.8s-16.8-7.522-16.8-16.8S162.52,155.6,171.798,155.6z M144.998,192.3h-18.9h-18.9c-11.5,0-18.7,9.5-18.7,21.4V243h12.9v-25.9c0-1.2,1-2,2-2c1.2,0,2,0.8,2,2v25.8h41.5v-25.8 c0-1.2,1-2,2-2c1.2,0,2,1,2,2v25.8h12.9v-29.1C163.998,201.8,156.698,192.3,144.998,192.3z M149.698,113.8 c9.278,0,16.8,7.522,16.8,16.8s-7.522,16.8-16.8,16.8s-16.8-7.522-16.8-16.8S140.42,113.8,149.698,113.8z M199.098,172.4 c0,9.3,7.5,16.8,16.8,16.8s16.8-7.5,16.8-16.8s-7.5-16.8-16.8-16.8S199.098,163.1,199.098,172.4z M197.398,192.3 c-11.5,0-18.7,9.5-18.7,21.4V243h12.9v-25.9c0-1.2,1-2,2-2c1.2,0,2,0.8,2,2v25.8h41.5v-25.8c0-1.2,1-2,2-2c1.2,0,2,1,2,2v25.8h12.9 v-29.1c0.2-12.1-7.1-21.6-18.7-21.6h-18.9h-19V192.3z M39.798,155.6c9.278,0,16.8,7.522,16.8,16.8s-7.522,16.8-16.8,16.8 s-16.8-7.522-16.8-16.8S30.52,155.6,39.798,155.6z M14.798,242.9v-25.8c0-1.2,1-2,2-2c1.2,0,2,0.8,2,2v25.8h41.5v-25.8 c0-1.2,1-2,2-2c1.2,0,2,1,2,2v25.8h12.9v-29.1c0.2-12.1-7.1-21.6-18.7-21.6h-18.9h-18.9c-11.5,0-18.7,9.5-18.7,21.4v29.3 L14.798,242.9L14.798,242.9z M109.298,172.4c0,9.3,7.5,16.8,16.8,16.8c9.3,0,16.8-7.5,16.8-16.8s-7.5-16.8-16.8-16.8 S109.298,163.1,109.298,172.4z M61.298,113.8c9.278,0,16.8,7.522,16.8,16.8s-7.522,16.8-16.8,16.8s-16.8-7.522-16.8-16.8 S52.02,113.8,61.298,113.8z M106.698,113.8c9.278,0,16.8,7.522,16.8,16.8s-7.522,16.8-16.8,16.8s-16.8-7.522-16.8-16.8 S97.42,113.8,106.698,113.8z M84.098,155.6c9.278,0,16.8,7.522,16.8,16.8s-7.522,16.8-16.8,16.8s-16.8-7.522-16.8-16.8 S74.82,155.6,84.098,155.6z M127.933,93c25.038,0,45.5-20.327,45.5-45.5S153.106,2,127.933,2S82.567,22.462,82.567,47.635 C82.567,72.673,102.894,93,127.933,93z M125.42,51.359c-8.346-2.917-13.551-7.135-13.551-14.628c0-6.91,4.577-12.34,12.968-14.045 v-7.494h6.282v7.135c5.205,0,8.974,1.077,11.756,2.558l-2.558,8.974c-2.064-0.853-5.429-2.288-10.051-2.288 c-4.622,0-7.135,2.288-7.135,4.577c0,3.141,2.917,4.353,9.199,6.91c8.571,3.141,12.564,7.494,12.564,14.628 s-4.353,12.564-13.551,14.628v7.135h-6.282v-6.91c-5.429,0-10.904-1.436-13.551-2.917l2.288-9.199 c2.917,1.436,7.494,3.141,12.34,3.141c5.205,0,7.763-2.288,7.763-5.429S131.433,53.692,125.42,51.359z"></path> </g></svg>