<!DOCTYPE svg PUBLIC "-//W3C//DTD SVG 1.1//EN" "http://www.w3.org/Graphics/SVG/1.1/DTD/svg11.dtd">
<!-- Uploaded to: SVG Repo, www.svgrepo.com, Transformed by: SVG Repo Mixer Tools -->
<svg width="800px" height="800px" viewBox="0 0 64 64" fill="none" xmlns="http://www.w3.org/2000/svg">
<g id="SVGRepo_bgCarrier" stroke-width="0"/>
<g id="SVGRepo_tracerCarrier" stroke-linecap="round" stroke-linejoin="round"/>
<g id="SVGRepo_iconCarrier"> <path d="M38.87 27.571C38.8647 25.6242 38.0883 23.7587 36.7108 22.3831C35.3333 21.0074 33.4668 20.2336 31.52 20.231C29.5748 20.2357 27.7106 21.0106 26.3351 22.386C24.9596 23.7615 24.1847 25.6257 24.18 27.571C24.1826 29.5178 24.9565 31.3842 26.3322 32.7617C27.7078 34.1393 29.5732 34.9157 31.52 34.921C33.4684 34.9178 35.336 34.1424 36.7137 32.7647C38.0914 31.387 38.8668 29.5193 38.87 27.571Z" fill="#4acd8d000000"/> <path d="M32.39 38.921H30.65C27.3861 38.9239 24.2567 40.2218 21.9487 42.5298C19.6408 44.8377 18.3429 47.9671 18.34 51.231V57.601H44.7V51.231C44.6971 47.9671 43.3992 44.8377 41.0913 42.5298C38.7833 40.2218 35.6539 38.9239 32.39 38.921Z" fill="#4acd8d000000"/> <path d="M51.52 5.60095H11.52C9.92869 5.60095 8.40256 6.23309 7.27734 7.35831C6.15213 8.48353 5.51999 10.0097 5.51999 11.601V51.601C5.51999 53.1922 6.15213 54.7184 7.27734 55.8436C8.40256 56.9688 9.92869 57.601 11.52 57.601H14.34V51.231C14.3425 48.0404 15.2795 44.9205 17.0354 42.2565C18.7912 39.5925 21.2889 37.5013 24.22 36.2409C22.9529 35.1797 21.9344 33.8531 21.2363 32.355C20.5382 30.8569 20.1776 29.2237 20.18 27.571C20.1845 24.5648 21.3807 21.683 23.5064 19.5573C25.6321 17.4316 28.5138 16.2355 31.52 16.231C34.5277 16.2333 37.4118 17.4285 39.5395 19.5544C41.6672 21.6802 42.865 24.5632 42.87 27.571C42.8724 29.2237 42.5118 30.8569 41.8137 32.355C41.1156 33.8531 40.0971 35.1797 38.83 36.2409C41.7587 37.5034 44.2539 39.5955 46.0078 42.2592C47.7617 44.9229 48.6976 48.0417 48.7 51.231V57.601H51.52C53.1113 57.601 54.6374 56.9688 55.7626 55.8436C56.8879 54.7184 57.52 53.1922 57.52 51.601V11.601C57.52 10.0097 56.8879 8.48353 55.7626 7.35831C54.6374 6.23309 53.1113 5.60095 51.52 5.60095Z" fill="#4acd8d"/> </g>
</svg>